<svg width="86" height="71" viewBox="0 0 86 71" fill="none" xmlns="http://www.w3.org/2000/svg">
<g clip-path="url(#clip0_1328_150)">
<path d="M32.2918 39.3286C32.596 33.8958 35.2477 29.0954 39.2655 25.7034C43.1972 22.369 48.4778 20.3281 54.2749 20.3281C60.0434 20.3281 65.3239 22.3661 69.2556 25.7034C73.2734 29.0954 75.9137 33.8958 76.2293 39.3286C76.5335 44.9051 74.2922 50.108 70.3748 53.9598C66.357 57.8692 60.6747 60.3413 54.2749 60.3413C47.8751 60.3413 42.1641 57.8864 38.175 53.9598C34.2433 50.108 32.0048 44.9339 32.3205 39.3574L32.2918 39.3286Z" fill="white"/>
<path d="M44.3168 38.6626C44.4731 35.8707 45.8358 33.4038 47.9005 31.6608C49.921 29.9472 52.6346 28.8984 55.6137 28.8984C58.578 28.8984 61.2916 29.9458 63.3121 31.6608C65.3768 33.4038 66.7336 35.8707 66.8958 38.6626C67.0522 41.5283 65.9003 44.202 63.8872 46.1814C61.8225 48.1904 58.9025 49.4607 55.6137 49.4607C52.3249 49.4607 49.3901 48.1992 47.3401 46.1814C45.3197 44.202 44.1693 41.5431 44.3316 38.6774L44.3168 38.6626Z" fill="#265787"/>
<path d="M26.6188 44.5759C26.638 45.669 26.986 47.7962 27.5081 49.4506C28.6053 52.9663 30.4724 56.2161 33.0533 59.067C35.7079 62.0066 38.9819 64.3701 42.7574 66.0541C46.7246 67.812 51.031 68.713 55.4996 68.713C59.9682 68.7071 64.2746 67.7913 68.2417 66.0098C72.0172 64.311 75.2913 61.9476 77.9459 58.9932C80.5415 56.1127 82.3997 52.8629 83.4911 49.3472C84.0441 47.5746 84.3936 45.7724 84.5337 43.9703C84.6709 42.1977 84.6134 40.4103 84.3612 38.6229C83.8686 35.1515 82.6652 31.887 80.8217 28.9326C79.1404 26.1998 76.9577 23.8216 74.3621 21.8126L74.3681 21.8082L48.2643 1.71853C48.2407 1.7008 48.2215 1.68159 48.1964 1.66534C46.4857 0.347693 43.5951 0.352132 41.7221 1.67273C39.8196 3.0081 39.5984 5.21795 41.2944 6.6065L41.287 6.61389L52.1857 15.4918L19.003 15.5272H18.9587C16.2156 15.5301 13.5757 17.3294 13.0596 19.619C12.5227 21.9382 14.3869 23.8732 17.248 23.8732L17.2436 23.8836L34.0561 23.8511L3.97045 46.8951C3.93211 46.9232 3.89081 46.9527 3.85541 46.9808C1.02382 49.1522 0.109444 52.7713 1.89394 55.0462C3.70793 57.3654 7.55713 57.3801 10.4182 55.0594L26.7884 41.6171C26.7884 41.6171 26.5495 43.4341 26.5686 44.5124L26.6188 44.5759ZM68.7978 50.6471C65.4205 54.0889 60.6864 56.0536 55.5836 56.0536C50.4661 56.0624 45.732 54.1333 42.3548 50.6915C40.703 49.0075 39.4937 47.0871 38.7415 45.0338C38.0086 43.0101 37.7239 40.8682 37.9127 38.7115C38.0912 36.5992 38.7194 34.5754 39.7267 32.7585C40.7119 30.9711 42.0716 29.3462 43.7381 27.9724C47.0269 25.2988 51.2006 23.8363 55.566 23.8363C59.9461 23.8304 64.1197 25.2677 67.4085 27.9429C69.075 29.3078 70.4318 30.9268 71.4199 32.7142C72.4272 34.5311 73.0569 36.5401 73.2339 38.6672C73.4197 40.8239 73.1351 42.9658 72.4021 44.9895C71.653 47.0576 70.4407 48.9779 68.7889 50.6619L68.7978 50.6471Z" fill="#EA7600"/>
</g>
<defs>
<clipPath id="clip0_1328_150">
<rect width="85.6507" height="70.0348" fill="white" transform="translate(0 0.0625)"/>
</clipPath>
</defs>
</svg>
