<svg width="48" height="71" viewBox="0 0 48 71" fill="none" xmlns="http://www.w3.org/2000/svg">
<g clip-path="url(#clip0_1328_157)">
<path d="M12.2158 70.1217C18.6807 70.1217 23.9276 64.8882 23.9276 58.4397V46.7578H12.2158C5.75081 46.7578 0.503906 51.9913 0.503906 58.4397C0.503906 64.8882 5.75081 70.1217 12.2158 70.1217Z" fill="#0ACF83"/>
<path d="M0.503906 35.0804C0.503906 28.6319 5.75081 23.3984 12.2158 23.3984H23.9276V46.7623H12.2158C5.75081 46.7623 0.503906 41.5288 0.503906 35.0804Z" fill="#A259FF"/>
<path d="M0.503906 11.7132C0.503906 5.26475 5.75081 0.03125 12.2158 0.03125H23.9276V23.3951H12.2158C5.75081 23.3951 0.503906 18.1616 0.503906 11.7132Z" fill="#F24E1E"/>
<path d="M23.9258 0.03125H35.6376C42.1026 0.03125 47.3495 5.26475 47.3495 11.7132C47.3495 18.1616 42.1026 23.3951 35.6376 23.3951H23.9258V0.03125Z" fill="#FF7262"/>
<path d="M47.3495 35.0804C47.3495 41.5288 42.1026 46.7623 35.6376 46.7623C29.1727 46.7623 23.9258 41.5288 23.9258 35.0804C23.9258 28.6319 29.1727 23.3984 35.6376 23.3984C42.1026 23.3984 47.3495 28.6319 47.3495 35.0804Z" fill="#1ABCFE"/>
</g>
<defs>
<clipPath id="clip0_1328_157">
<rect width="46.737" height="70.0915" fill="white" transform="translate(0.498047 0.03125)"/>
</clipPath>
</defs>
</svg>
