<svg width="73" height="71" viewBox="0 0 73 71" fill="none" xmlns="http://www.w3.org/2000/svg">
<g clip-path="url(#clip0_1328_187)">
<path d="M13.294 0H59.8119C66.8646 0 72.5668 5.69119 72.5668 12.7303V57.3612C72.5668 64.4003 66.8646 70.0915 59.8119 70.0915H13.294C6.24126 70.0915 0.539062 64.4003 0.539062 57.3612V12.7303C0.539062 5.69119 6.24126 0 13.294 0Z" fill="#330000"/>
<path d="M35.3526 41.936H24.1883L21.9074 48.9751C21.8474 49.2447 21.6073 49.4244 21.3372 49.3945H15.695C15.3649 49.3945 15.2749 49.2148 15.3649 48.8553L25.0286 21.0883C25.1187 20.7888 25.2087 20.4593 25.3287 20.0998C25.4488 19.4708 25.5088 18.8118 25.5088 18.1528C25.4788 18.0031 25.5989 17.8533 25.7489 17.8234H33.5219C33.762 17.8234 33.882 17.9132 33.9121 18.063L44.8663 48.9152C44.9563 49.2447 44.8663 49.3945 44.5662 49.3945H38.2937C38.0837 49.4244 37.8736 49.2747 37.8136 49.065L35.3526 41.936ZM25.929 35.8554H33.5519C33.3718 35.2264 33.1318 34.4776 32.8616 33.6988C32.5915 32.89 32.3214 32.0214 32.0513 31.1228C31.7512 30.1942 31.4811 29.2956 31.181 28.367C30.8809 27.4385 30.6108 26.5698 30.3707 25.7012C30.1306 24.8625 29.9205 24.0837 29.7104 23.3648H29.6504C29.3803 24.6528 29.0502 25.9408 28.63 27.2288C28.1798 28.6666 27.7297 30.1643 27.2495 31.6619C26.8293 33.1896 26.3792 34.5974 25.929 35.8554ZM51.5589 23.0652C50.5685 23.0952 49.6081 22.7058 48.8878 22.0169C48.1976 21.268 47.8374 20.2796 47.8674 19.2611C47.8374 18.2427 48.2276 17.2842 48.9478 16.5953C49.6681 15.9063 50.6285 15.5469 51.6189 15.5469C52.7893 15.5469 53.6897 15.9063 54.3499 16.5953C55.0102 17.3141 55.3703 18.2727 55.3403 19.2611C55.3703 20.2796 55.0102 21.268 54.2899 22.0169C53.5996 22.7357 52.5792 23.1251 51.5589 23.0652ZM48.1976 49.065V26.0007C48.1976 25.7012 48.3176 25.5813 48.5877 25.5813H54.53C54.8001 25.5813 54.9201 25.7311 54.9201 26.0007V49.065C54.9201 49.3945 54.8001 49.5443 54.53 49.5443H48.6477C48.3476 49.5443 48.1976 49.3645 48.1976 49.065Z" fill="#FF9A00"/>
</g>
<defs>
<clipPath id="clip0_1328_187">
<rect width="71.9582" height="70.1593" fill="white" transform="translate(0.539062)"/>
</clipPath>
</defs>
</svg>
