<svg width="189" height="182" viewBox="0 0 189 182" fill="none" xmlns="http://www.w3.org/2000/svg">
<g clip-path="url(#clip0_1170_134)">
<path d="M61.4459 23.3122C69.7175 23.1419 78.2209 25.8348 88.0531 32.9687C88.0985 33.0068 88.1439 33.045 88.1906 33.0843C89.2626 33.9872 90.2813 34.9332 91.2767 35.9201C91.3514 35.9937 91.4262 36.0673 91.5032 36.1432C91.949 36.5884 92.3588 37.0495 92.7526 37.5412C92.8852 37.7066 93.0195 37.8686 93.159 38.0282C94.7103 39.8099 95.99 41.8071 97.1175 43.8786C97.1632 43.9626 97.2089 44.0465 97.256 44.133C97.3079 44.2285 97.3079 44.2285 97.3609 44.3259C97.426 44.326 97.4911 44.3261 97.5582 44.3263C101.425 44.3332 105.292 44.3409 109.16 44.3498C109.625 44.3509 110.09 44.352 110.555 44.353C110.694 44.3533 110.694 44.3533 110.836 44.3537C112.332 44.357 113.828 44.3598 115.324 44.3624C116.861 44.3651 118.398 44.3684 119.935 44.3723C120.882 44.3746 121.829 44.3765 122.776 44.3778C123.427 44.3787 124.078 44.3802 124.729 44.3822C125.104 44.3833 125.478 44.3842 125.853 44.3843C127.918 44.3853 129.965 44.4501 132.014 44.7315C132.12 44.746 132.226 44.7604 132.335 44.7753C138.902 45.7108 145.207 48.3225 150.475 52.3528C150.53 52.3943 150.584 52.4358 150.64 52.4785C152.468 53.8719 154.285 55.4413 155.775 57.1965C155.907 57.3522 156.042 57.5052 156.178 57.6575C156.95 58.5257 157.646 59.442 158.331 60.3798C158.399 60.4705 158.399 60.4705 158.467 60.5631C160.623 63.4781 162.238 66.795 163.455 70.1999C163.494 70.3065 163.494 70.3065 163.534 70.4152C164.542 73.1719 165.103 76.0986 165.44 79.006C165.447 79.067 165.455 79.128 165.462 79.1908C165.629 80.6421 165.695 82.0927 165.696 83.5532C165.697 83.6582 165.697 83.6582 165.697 83.7653C165.695 85.0635 165.607 86.3345 165.419 87.62C165.404 87.7239 165.389 87.8277 165.373 87.9347C164.202 95.7918 160.796 103.142 155.44 109.023C155.323 109.152 155.207 109.282 155.093 109.413C154.652 109.915 154.186 110.39 153.715 110.863C153.65 110.928 153.586 110.993 153.519 111.06C153.116 111.462 152.7 111.842 152.268 112.213C152.17 112.3 152.071 112.388 151.973 112.475C151.189 113.167 150.375 113.81 149.536 114.433C149.443 114.503 149.443 114.503 149.348 114.574C147.832 115.701 146.237 116.681 144.583 117.593C144.507 117.635 144.43 117.677 144.351 117.721C139.551 120.349 134.352 121.721 128.956 122.375C128.995 122.413 129.034 122.451 129.074 122.49C129.378 122.789 129.662 123.091 129.928 123.426C130.179 123.739 130.436 124.042 130.707 124.339C131.109 124.781 131.484 125.241 131.86 125.705C131.98 125.853 132.101 126.001 132.222 126.148C132.358 126.314 132.493 126.479 132.628 126.645C132.691 126.721 132.691 126.721 132.755 126.8C133.283 127.447 133.807 128.096 134.322 128.754C134.761 129.315 135.211 129.867 135.662 130.418C135.773 130.555 135.884 130.692 135.996 130.829C136.404 131.33 136.819 131.827 137.238 132.319C137.401 132.511 137.563 132.703 137.725 132.896C138.309 133.592 138.923 134.247 139.567 134.887C139.722 135.041 139.875 135.195 140.029 135.349C141.403 136.725 142.94 137.876 144.668 138.77C144.721 138.797 144.773 138.825 144.826 138.853C148.873 140.932 153.584 140.177 157.99 140.222C157.99 146.224 157.99 152.227 157.99 158.411C155.755 158.416 155.755 158.416 153.475 158.421C152.776 158.424 152.776 158.424 152.063 158.426C151.483 158.427 151.483 158.427 151.208 158.427C151.022 158.427 150.835 158.428 150.649 158.429C148.815 158.437 146.98 158.369 145.17 158.048C145.063 158.029 144.957 158.011 144.847 157.992C139.268 156.993 133.907 154.362 129.651 150.617C129.406 150.402 129.153 150.197 128.898 149.994C128.477 149.654 128.101 149.28 127.723 148.895C127.538 148.71 127.351 148.536 127.152 148.366C126.589 147.883 126.081 147.351 125.599 146.789C125.457 146.628 125.309 146.478 125.156 146.328C124.839 146.015 124.549 145.684 124.26 145.346C124.183 145.256 124.107 145.167 124.03 145.078C123.855 144.875 123.681 144.671 123.506 144.467C123.33 144.26 123.152 144.054 122.974 143.849C122.514 143.318 122.068 142.78 121.637 142.225C121.323 141.822 120.999 141.427 120.673 141.033C120.263 140.538 119.86 140.037 119.464 139.53C119.106 139.071 118.737 138.621 118.368 138.173C118.239 138.016 118.111 137.86 117.983 137.703C117.919 137.625 117.856 137.547 117.79 137.467C117.666 137.315 117.542 137.163 117.419 137.01C116.647 136.058 115.841 135.134 115.009 134.234C114.858 134.071 114.708 133.907 114.559 133.742C113.772 132.872 112.962 131.999 112.064 131.242C111.908 131.111 111.756 130.977 111.603 130.842C109.608 129.078 107.396 127.557 105.046 126.303C104.97 126.262 104.893 126.221 104.814 126.179C102.896 125.159 100.881 124.358 98.8232 123.666C98.7181 123.631 98.6129 123.595 98.5045 123.559C98.2887 123.488 98.0733 123.42 97.8559 123.354C97.6446 123.29 97.4342 123.225 97.2245 123.156C95.6636 122.645 94.193 122.543 92.5697 122.553C92.2381 122.555 91.9066 122.553 91.5751 122.551C90.9513 122.548 90.3274 122.549 89.7036 122.55C88.9917 122.552 88.2798 122.55 87.5679 122.547C86.1072 122.543 84.6465 122.543 83.1857 122.546C83.1857 122.494 83.1857 122.443 83.1857 122.39C83.1872 116.772 83.1885 111.155 83.1893 105.538C83.1893 105.412 83.1893 105.412 83.1893 105.283C83.1896 103.456 83.1898 101.629 83.1901 99.8012C83.1902 98.9049 83.1903 98.0086 83.1904 97.1124C83.1904 97.0232 83.1904 96.934 83.1904 96.8421C83.1908 93.9573 83.1914 91.0725 83.1922 88.1877C83.193 85.2204 83.1935 82.253 83.1937 79.2857C83.1937 78.8655 83.1938 78.4453 83.1938 78.0251C83.1938 77.901 83.1938 77.901 83.1938 77.7745C83.1939 76.4494 83.1943 75.1244 83.1948 73.7994C83.1953 72.4635 83.1955 71.1277 83.1954 69.7919C83.1953 69.0696 83.1954 68.3474 83.1959 67.6251C83.2027 64.1528 83.2027 64.1528 83.1517 60.6809C83.1503 60.6179 83.149 60.5548 83.1475 60.4898C83.1224 59.4068 82.9981 58.3617 82.7587 57.3056C82.7433 57.2353 82.7279 57.1649 82.712 57.0925C82.3531 55.49 81.744 53.9666 80.9655 52.5236C80.9387 52.473 80.9118 52.4223 80.8842 52.3701C79.8426 50.412 78.3263 48.6229 76.5891 47.2459C76.3488 47.0541 76.1173 46.8539 75.8846 46.6529C71.646 43.1289 65.877 41.2381 60.3889 41.7C56.1086 42.1048 52.0351 43.7282 48.7724 46.5461C48.7038 46.6052 48.6353 46.6643 48.5646 46.7253C47.6109 47.566 46.7385 48.4513 45.9793 49.4721C45.9075 49.5686 45.8351 49.6648 45.7621 49.7604C45.0797 50.6554 44.5226 51.6186 43.9904 52.609C43.9553 52.6742 43.9202 52.7395 43.884 52.8067C42.3015 55.8003 41.6421 59.2275 41.6508 62.5871C41.6503 62.7751 41.6497 62.9631 41.649 63.1511C41.6475 63.6617 41.6475 64.1723 41.6479 64.6829C41.6479 65.2358 41.6465 65.7887 41.6453 66.3416C41.6433 67.2976 41.6423 68.2535 41.6419 69.2094C41.6415 70.2109 41.6406 71.2125 41.639 72.214C41.6389 72.2765 41.6388 72.339 41.6387 72.4034C41.6382 72.7208 41.6376 73.0382 41.6371 73.3556C41.6334 75.5984 41.6308 77.8412 41.629 80.084C41.6272 82.2616 41.6249 84.4391 41.6218 86.6167C41.6217 86.6839 41.6216 86.7512 41.6215 86.8204C41.6206 87.4957 41.6196 88.1709 41.6187 88.8461C41.6167 90.2214 41.6148 91.5967 41.613 92.972C41.6129 93.0352 41.6128 93.0984 41.6127 93.1635C41.6101 95.0996 41.6079 97.0357 41.6059 98.9718C41.6058 99.0802 41.6056 99.1885 41.6055 99.3002C41.6033 101.47 41.6014 103.639 41.5994 105.809C35.569 105.809 29.5385 105.809 23.3254 105.809C23.3219 100.733 23.3219 100.733 23.321 99.1413C23.3209 99.0569 23.3209 99.0569 23.3209 98.9709C23.3198 97.0753 23.3189 95.1796 23.3181 93.284C23.3181 93.2221 23.3181 93.1601 23.3181 93.0963C23.3176 91.7496 23.3171 90.4028 23.3166 89.0561C23.3164 88.3955 23.3162 87.7349 23.316 87.0743C23.316 87.0086 23.3159 86.9428 23.3159 86.8751C23.3152 84.7506 23.3139 82.6261 23.3123 80.5016C23.3107 78.3155 23.3097 76.1294 23.3093 73.9433C23.3093 73.6335 23.3092 73.3236 23.3092 73.0137C23.3091 72.9527 23.3091 72.8917 23.3091 72.8289C23.3089 71.8535 23.3081 70.8781 23.3071 69.9027C23.3061 68.9183 23.3057 67.934 23.306 66.9496C23.3061 66.4178 23.3059 65.8859 23.305 65.3541C23.2989 61.6628 23.2989 61.6628 23.4023 59.8916C23.4057 59.8333 23.4091 59.7749 23.4126 59.7148C23.8866 51.8502 26.8288 44.0603 31.7792 37.9215C31.8489 37.8338 31.9186 37.7462 31.9904 37.6559C32.3518 37.2071 32.728 36.774 33.1168 36.3487C33.2241 36.2302 33.3308 36.1111 33.4344 35.9894C33.8833 35.4637 34.3676 34.9756 34.8561 34.4872C35.0018 34.3413 35.1468 34.1948 35.2917 34.0483C35.8594 33.4777 36.4424 32.9567 37.0736 32.4563C37.1667 32.3775 37.2593 32.2981 37.3511 32.2178C43.4769 26.8839 51.5236 24.0748 59.5319 23.4047C59.6049 23.3985 59.6779 23.3924 59.7531 23.386C60.3171 23.3414 60.8804 23.3259 61.4459 23.3122ZM101.46 62.6C101.46 76.3516 101.46 90.1033 101.46 104.272C105.602 104.277 109.745 104.282 114.012 104.288C115.318 104.29 116.623 104.292 117.968 104.295C119.144 104.296 119.144 104.296 120.319 104.296C120.841 104.296 121.362 104.297 121.884 104.299C122.487 104.3 123.09 104.301 123.693 104.301C124.001 104.301 124.309 104.301 124.616 104.302C129.318 104.323 133.854 103.106 137.752 100.429C137.806 100.392 137.86 100.356 137.916 100.318C138.707 99.7839 139.43 99.184 140.143 98.5503C140.186 98.5119 140.23 98.4735 140.275 98.434C144.115 95.0636 146.593 90.3101 147.353 85.2771C147.367 85.1847 147.381 85.0923 147.395 84.9971C148.075 80.091 146.249 74.7087 143.344 70.794C143.007 70.3517 142.647 69.9318 142.277 69.5168C142.239 69.4733 142.201 69.4299 142.162 69.3851C138.555 65.2888 133.262 62.996 127.869 62.6153C126.968 62.5657 126.065 62.5775 125.164 62.5801C124.84 62.5809 124.516 62.5806 124.192 62.5805C123.567 62.5804 122.941 62.5812 122.315 62.5823C121.59 62.5835 120.865 62.5837 120.14 62.5838C118.229 62.5847 116.318 62.5871 114.407 62.5893C110.135 62.5928 105.862 62.5963 101.46 62.6Z" fill="#009293"/>
</g>
<defs>
<clipPath id="clip0_1170_134">
<rect width="142.35" height="135.091" fill="white" transform="translate(23.325 23.3281)"/>
</clipPath>
</defs>
</svg>
