<svg width="73" height="71" viewBox="0 0 73 71" fill="none" xmlns="http://www.w3.org/2000/svg">
<g clip-path="url(#clip0_1328_190)">
<path d="M13.4053 0.03125H59.9232C66.9759 0.03125 72.6781 5.72244 72.6781 12.7615V57.3925C72.6781 64.4316 66.9759 70.1228 59.9232 70.1228H13.4053C6.35259 70.1228 0.650391 64.4316 0.650391 57.3925V12.7615C0.650391 5.72244 6.35259 0.03125 13.4053 0.03125Z" fill="#001E36"/>
<path d="M16.8555 49.1831V18.3608C16.8555 18.1511 16.9455 18.0313 17.1556 18.0313C17.6658 18.0313 18.146 18.0313 18.8362 18.0013C19.5565 17.9714 20.3068 17.9714 21.1171 17.9414C21.9274 17.9115 22.7978 17.9115 23.7281 17.8815C24.6585 17.8516 25.5588 17.8516 26.4592 17.8516C28.9201 17.8516 30.9609 18.1511 32.6416 18.7801C34.1421 19.2893 35.5227 20.128 36.6631 21.2363C37.6235 22.1948 38.3738 23.363 38.8539 24.651C39.3041 25.9091 39.5442 27.1971 39.5442 28.545C39.5442 31.121 38.944 33.2477 37.7435 34.9251C36.5431 36.6025 34.8624 37.8606 32.9117 38.5795C30.8709 39.3283 28.62 39.5979 26.1591 39.5979C25.4388 39.5979 24.9586 39.5979 24.6585 39.568C24.3584 39.538 23.9382 39.538 23.368 39.538V49.1531C23.398 49.3628 23.2479 49.5425 23.0379 49.5725C23.0078 49.5725 22.9778 49.5725 22.9178 49.5725H17.2156C16.9755 49.5725 16.8555 49.4527 16.8555 49.1831ZM23.398 23.8123V33.8768C23.8182 33.9067 24.2083 33.9367 24.5684 33.9367H26.1591C27.3295 33.9367 28.5 33.7569 29.6104 33.3975C30.5708 33.1279 31.4111 32.5588 32.0713 31.81C32.7016 31.0611 33.0017 30.0427 33.0017 28.7247C33.0317 27.7962 32.7916 26.8676 32.3114 26.0589C31.8012 25.2801 31.081 24.681 30.2106 24.3515C29.1002 23.9022 27.8997 23.7225 26.6692 23.7524C25.8889 23.7524 25.1987 23.7524 24.6285 23.7824C24.0282 23.7524 23.6081 23.7824 23.398 23.8123Z" fill="#31A8FF"/>
<path d="M58.2718 32.0508C57.3714 31.5715 56.411 31.242 55.3906 31.0323C54.2802 30.7927 53.1698 30.6429 52.0293 30.6429C51.4291 30.613 50.7989 30.7029 50.2287 30.8526C49.8385 30.9425 49.5084 31.1522 49.2983 31.4517C49.1482 31.6913 49.0582 31.9909 49.0582 32.2604C49.0582 32.53 49.1783 32.7996 49.3583 33.0392C49.6284 33.3687 49.9886 33.6383 50.3787 33.848C51.069 34.2074 51.7893 34.5369 52.5095 34.8365C54.1302 35.3756 55.6908 36.1245 57.1313 37.0231C58.1217 37.6521 58.932 38.4908 59.5022 39.5092C59.9824 40.4677 60.2225 41.5161 60.1925 42.5945C60.2225 44.0023 59.8023 45.4101 59.022 46.5783C58.1817 47.7764 57.0113 48.705 55.6607 49.2442C54.1902 49.8732 52.3895 50.2027 50.2287 50.2027C48.8481 50.2027 47.4976 50.0829 46.1471 49.8133C45.0967 49.6336 44.0463 49.3041 43.0859 48.8548C42.8758 48.7349 42.7258 48.5253 42.7558 48.2856V43.0737C42.7558 42.9838 42.7858 42.864 42.8758 42.8041C42.9659 42.7442 43.0559 42.7742 43.1459 42.8341C44.3164 43.523 45.5469 44.0023 46.8674 44.3018C48.0078 44.6013 49.2083 44.7511 50.4087 44.7511C51.5492 44.7511 52.3595 44.6013 52.8997 44.3318C53.3799 44.1221 53.71 43.6129 53.71 43.0737C53.71 42.6544 53.4699 42.265 52.9897 41.8756C52.5095 41.4862 51.5192 41.0369 50.0486 40.4677C48.518 39.9286 47.1075 39.2097 45.7869 38.3111C44.8566 37.6521 44.0763 36.7834 43.5061 35.765C43.0259 34.8065 42.7858 33.7581 42.8158 32.7098C42.8158 31.4217 43.1759 30.1936 43.8362 29.0854C44.5865 27.8872 45.6969 26.9287 46.9874 26.3296C48.3979 25.6107 50.1686 25.2812 52.2995 25.2812C53.5299 25.2812 54.7904 25.3711 56.0209 25.5508C56.9212 25.6706 57.7916 25.9103 58.6019 26.2398C58.7219 26.2697 58.842 26.3895 58.902 26.5093C58.932 26.6292 58.962 26.749 58.962 26.8688V31.7512C58.962 31.871 58.902 31.9909 58.812 32.0508C58.5419 32.1107 58.3918 32.1107 58.2718 32.0508Z" fill="#31A8FF"/>
</g>
<defs>
<clipPath id="clip0_1328_190">
<rect width="71.8887" height="70.0915" fill="white" transform="translate(0.650391 0.03125)"/>
</clipPath>
</defs>
</svg>
