<svg width="71" height="71" viewBox="0 0 71 71" fill="none" xmlns="http://www.w3.org/2000/svg">
<path d="M38.08 37.5147H47.5087L39.5286 29.625H29.752V39.0186L38.08 47.319V37.5147Z" fill="#EE7913"/>
<path d="M68.3217 58.0918L51.4989 41.4609H42.0234V51.2521L58.1448 67.319H68.3217V58.0918Z" fill="url(#paint0_linear_1328_163)"/>
<path d="M42.0255 41.4602H51.501L47.5107 37.5156H38.082V47.3199L42.0255 51.2514V41.4602Z" fill="#F0E64A"/>
<path d="M40.0581 54.6044C38.6289 54.9335 37.1441 55.112 35.6123 55.112C24.6531 55.112 15.3317 46.1004 15.3317 34.4159C15.3317 22.7311 24.5493 13.9171 35.6123 13.9171C46.6738 13.9171 55.4816 22.7298 55.4816 34.4159C55.4816 36.3152 55.2453 38.1447 54.8078 39.8767L64.951 50.0186C67.5663 45.4364 69.0295 40.1081 69.0295 34.3373C69.0295 16.3276 54.6572 2.84375 35.4072 2.84375C16.2443 2.84375 1.87305 16.2397 1.87305 34.3373C1.87305 52.523 16.2443 66.1854 35.4072 66.1854C40.3536 66.1854 44.9769 65.2756 49.118 63.6197L40.0581 54.6044Z" fill="url(#paint1_linear_1328_163)"/>
<path d="M29.752 29.625L68.3217 67.3173V58.0901L51.4989 41.4592L47.5087 37.5144L39.5286 29.625H29.752Z" fill="white" fill-opacity="0.172"/>
<defs>
<linearGradient id="paint0_linear_1328_163" x1="55.3786" y1="68.211" x2="54.388" y2="3.10938" gradientUnits="userSpaceOnUse">
<stop stop-color="#589632"/>
<stop offset="1" stop-color="#93B023"/>
</linearGradient>
<linearGradient id="paint1_linear_1328_163" x1="35.9822" y1="69.23" x2="34.9998" y2="4.67188" gradientUnits="userSpaceOnUse">
<stop stop-color="#589632"/>
<stop offset="1" stop-color="#93B023"/>
</linearGradient>
</defs>
</svg>
