<svg width="71" height="71" viewBox="0 0 71 71" fill="none" xmlns="http://www.w3.org/2000/svg">
    <g clip-path="url(#clip0_1328_171)">
        <path
            d="M18.694 27.9312C18.9416 27.8652 19.1988 27.8346 19.4544 27.8442C20.8803 27.8942 21.996 29.093 21.9462 30.5222V46.2485C21.9462 47.8501 20.9205 48.1982 19.9737 48.1804C19.3306 48.1353 18.6956 48.0161 18.0799 47.8243C22.0475 53.2061 28.2962 56.419 34.9726 56.5092L40.7568 50.678L44.1842 54.5418C52.7238 50.4975 55.4036 43.0291 56.0065 40.1191C52.8829 43.3401 49.4282 46.582 47.0955 44.3359C47.0955 44.3359 46.9685 32.3317 46.9685 27.4092C46.9685 20.7964 53.2382 15.8578 53.2382 15.8578C49.7931 16.4717 45.6567 17.6963 41.2744 22.0113C40.8773 22.4061 40.5011 22.8202 40.1475 23.2553C38.2618 21.8148 35.8246 22.2434 35.8246 22.2434C37.1413 22.9652 38.4579 25.0792 38.4579 26.8291V44.0265C38.4579 44.0265 35.5851 46.5595 33.3698 46.5595C32.3554 46.5691 31.4005 46.0857 30.8057 45.2624C30.6321 45.032 30.4874 44.7806 30.3781 44.5131V23.2778C29.7222 23.8192 27.5117 24.2526 27.5117 20.5837C27.5117 18.2957 29.1563 15.5677 32.0805 13.8984C29.1209 14.3577 25.2241 15.5307 21.2356 18.9176C16.5077 23.0119 13.8149 28.985 13.876 35.2482C13.8744 35.2465 16.0173 28.5451 18.694 27.9312Z"
            fill="white" />
        <path
            d="M35.2519 70.0909C54.5432 70.0893 70.1819 54.4146 70.1803 35.079C70.1803 15.7434 54.5416 0.0703125 35.2519 0.0703125C35.2503 0.0703125 35.2487 0.0703125 35.2471 0.0703125C15.9559 0.0719238 0.318705 15.7466 0.320313 35.0822C0.320313 54.4194 15.9607 70.0926 35.2519 70.0909ZM35.2439 1.46731C53.7635 1.4657 68.7785 16.5136 68.7801 35.0758V35.0774C68.7801 53.6396 53.7683 68.6875 35.2487 68.6875C16.7275 68.6907 1.7125 53.6428 1.7125 35.0806C1.71089 16.5185 16.7227 1.46892 35.2439 1.46731Z"
            fill="white" />
    </g>
    <defs>
        <clipPath id="clip0_1328_171">
            <rect width="70.1721" height="70.0111" fill="white"
                transform="translate(0.234375 0.0703125)" />
        </clipPath>
    </defs>
</svg>